<?xml version="1.0" encoding="UTF-8"?><svg xmlns="http://www.w3.org/2000/svg" viewBox="0 0 492.23 575.7"><defs><style>.e{fill:#754c24;}.e,.f{stroke:#000;stroke-miterlimit:10;}.f{fill:#fff;}</style></defs><g id="a"/><g id="b"><g id="c"><path class="f" d="M162.54,32.77C185.38-2.54,240.81,.24,251.54,.77c21.65,1.08,36.86,7.23,61,17,34.16,13.82,52.32,21.16,66,40,15.06,20.73,20.98,50.25,14,75-15.35,54.4-94.53,90.92-157,68-65.56-24.05-78.63-101.06-80-110-2.38-15.51-5.85-38.14,7-58Z"/><path class="f" d="M224.54,104.77c11.18-11.25,69.34-67.93,125-51,7.63,2.32,12.57,5.22,19,9,44.76,26.3,88.35,86.09,76,141-6.22,27.66-24.5,44.62-40,59-75.19,69.77-183.52,61.42-228,58-21.4-1.65-54.23,2.99-87.14-15.45-4.31-2.41-14.18-8.02-22.86-16.55-38.53-37.89-36.28-116.8-6-173,10.62-19.71,39.12-72.6,87-71,31.3,1.05,60.57,25.03,77,60Z"/></g><g id="d"><path class="e" d="M84.54,302.77c18.43,4.08,43.73-17.83,50-42,2.76-10.65-1.26-11.29,1-23,1.41-7.31,5.53-21.86,45-62,18.25-18.56,26.49-24.73,32-40,3.97-11.01,5.49-23.89,5-24-.96-.21-21.58,45.52-3,71,6.45,8.84,11.37,6.68,15,14,13.05,26.33-41.34,73.26-32,84,2.9,3.34,11.9,3.1,17,2,6.54-1.41,9.99-4.95,11-4,2.39,2.26-17.25,22.01-14,27,4.15,6.37,54.61-32.75,65-23,8.77,8.23-18.53,43.54-12,49,6.77,5.66,51.07-19.86,65-62,10.69-32.34-1.48-59.45,4-61,5.84-1.66,26.87,27.13,23,57-4.57,35.22-41.46,54.23-40,56,1.75,2.13,57.42-22.59,72-73,9.14-31.6-2.67-56.71-1-57,2.68-.47,26.47,65.34,0,100-3.57,4.67-6.36,6.56-6,7,2.03,2.49,99.55-48.51,102-112,.72-18.66-6.88-35.78-6-36,1.09-.28,16,25.58,14,55-3.69,54.41-64.1,104.68-104,111-4.97,.79-16.79,2.03-26,11-11.65,11.35-7.23,23.51-14,35-13.6,23.08-63.11,27.81-100,14-30.39-11.38-28.12-26.32-66-41-9.53-3.7-51.2-19.84-68-3-10.11,10.14-4.62,25.61-12,28-9.53,3.09-26.38-20.25-35-40-7.96-18.23-11.05-38.29-7-40,4.17-1.76,9.62,18.6,25,22Z"/><path class="e" d="M139.54,325.77c-12.38,22.97-24.34,54.24-12,79,10.84,21.75,30.29,18.14,60,38,66.63,44.55,62.8,125.92,110,132,7.23,.93,19.27,.68,21-4,2.15-5.79-13.89-11.92-25-30-11.51-18.73-3.1-26.5-13-42-10.85-17-24.53-13.26-48-31-18.12-13.7-13.88-18.88-35-41-33.86-35.45-59.83-37.89-61-56-.5-7.79,3.48-19.85,28-36"/><path class="e" d="M2.78,131.82c-10.48,7.61,17.89,75.11,30.77,72.95,7.21-1.21,12.65-24.74,5-44-8.1-20.37-29.79-33.29-35.77-28.95Z"/></g></g></svg>