<?xml version="1.0" encoding="UTF-8"?><svg xmlns="http://www.w3.org/2000/svg" viewBox="0 0 114 426.03"><defs><style>.e{stroke-width:4px;}.e,.f{fill:none;stroke:#ffe300;stroke-miterlimit:10;}.g{fill:#ffe300;}.f{stroke-width:2px;}</style></defs><g id="a"/><g id="b"><g id="c"><rect class="g" x="56.41" y="10.74" width="32.63" height="124.63" transform="translate(-24.17 37.87) rotate(-25.17)"/><path class="f" d="M32,1.52c2.36-2.21,14.28,2.7,18,13,2.15,5.95,1.72,14.17-1,15-5.31,1.61-20.74-24.49-17-28Z"/><line class="e" y1="121.52" x2="51" y2="121.52"/><line class="e" x1="15" y1="157.52" x2="51" y2="157.52"/><line class="e" x1="22" y1="80.52" x2="46" y2="80.52"/><line class="e" x1="15" y1="98.52" x2="51" y2="98.52"/><line class="e" x1="15" y1="54.52" x2="46" y2="54.52"/><line class="e" x1="15" y1="194.52" x2="55" y2="194.52"/><line class="e" x1="22" y1="216.52" x2="41" y2="216.52"/><line class="e" x1="15" y1="238.52" x2="51" y2="238.52"/><line class="e" x1="15" y1="260.52" x2="51" y2="260.52"/><line class="e" x1="15" y1="291.52" x2="62" y2="291.52"/><line class="e" x1="15" y1="315.52" x2="46" y2="315.52"/><line class="e" x1="11" y1="342.52" x2="62" y2="342.52"/><line class="e" x1="11" y1="364.52" x2="41" y2="364.52"/><line class="e" x1="55" y1="386.52" x2="11" y2="386.52"/><line class="e" x1="15" y1="176.52" x2="55" y2="176.52"/><line class="e" x1="15" y1="115.52" x2="51" y2="115.52"/><line class="e" x1="15" y1="68.52" x2="55" y2="68.52"/><line class="e" x1="15" y1="33.52" x2="49" y2="33.52"/><line class="e" x1="11" y1="226.52" x2="55" y2="226.52"/><line class="e" x1="11" y1="168.52" x2="55" y2="168.52"/><line class="e" x1="15" y1="276.52" x2="49" y2="276.52"/><line class="e" x1="15" y1="301.52" x2="62" y2="301.52"/><line class="e" x1="15" y1="335.52" x2="55" y2="335.52"/><line class="e" x1="15" y1="402.52" x2="55" y2="402.52"/><line class="e" x1="7" y1="43.52" x2="55" y2="43.52"/><line class="e" x1="11" y1="203.52" x2="62" y2="203.52"/><line class="e" x1="22" y1="248.52" x2="55" y2="248.52"/><line class="e" x1="15" y1="353.52" x2="62" y2="353.52"/><line class="e" x1="15" y1="378.52" x2="55" y2="378.52"/><line class="e" x1="15" y1="419.52" x2="46" y2="419.52"/><line class="e" x1="15" y1="86.52" x2="55" y2="86.52"/><line class="e" x1="11" y1="184.52" x2="62" y2="184.52"/><line class="e" x1="22" y1="140.52" x2="46" y2="140.52"/><line class="e" x1="15" y1="323.52" x2="62" y2="323.52"/><line class="e" x1="7" y1="130.52" x2="62" y2="130.52"/><line class="e" y1="409.52" x2="83" y2="409.52"/><line class="e" x1="11" y1="149.52" x2="62" y2="149.52"/><line class="e" x1="11" y1="107.52" x2="55" y2="107.52"/><line class="e" x1="62" y1="285.52" x2="11" y2="285.52"/><line class="e" x1="15" y1="394.52" x2="73" y2="394.52"/><line class="e" x1="15" y1="63.52" x2="62" y2="63.52"/><line class="e" x1="7" y1="209.52" x2="62" y2="209.52"/><line class="e" y1="371.52" x2="62" y2="371.52"/><line class="e" y1="268.52" x2="73" y2="268.52"/></g><g id="d"><line class="f" x1="32.5" y1="1.02" x2="29.5" y2="426.02"/></g></g></svg>