<?xml version="1.0" encoding="UTF-8"?><svg xmlns="http://www.w3.org/2000/svg" viewBox="0 0 690 891"><g id="a"/><g id="b"><g id="c"><g transform="translate(0.000000,891.000000) scale(0.100000,-0.100000)"><path d="M203.2,18.7l.3,18.8,39.3,.3,39.2,.2V0h-79l.2,18.7Z"/><path d="M164.5,41.2c-.3,.7-.6,82.7-.8,182.3l-.2,181-20.3,.3-20.2,.2,.2,19.8,.3,19.7,20.2,.3,20.3,.2,.2,19.3,.3,19.2h37V40.5l-18.3-.3c-14-.2-18.4,0-18.7,1Z"/><path d="M284,221.5v181.5h40v-79.8c0-60.7,.3-80.1,1.2-81s11.3-1.2,40.5-1.2h39.3v-39h-39.3c-29.2,0-39.6-.3-40.5-1.2s-1.2-20.3-1.2-81V40h-40V221.5Z"/><path d="M407,323v80h37v-60.3c0-45.6,.3-60.6,1.2-61.5s11.6-1.2,42.1-1.2h40.9l-.5-2.3c-.7-2.7-2.7-22.4-3-29.2l-.2-5-58.7-.3-58.8-.2v80Z"/><path d="M529.2,363.2l.3,81.3,17.6,.3c13.9,.2,17.9,0,18.8-1.1,.8-1,1.2-18.5,1.3-61.3l.3-59.9,20.3-.3,20.2-.2-.2-18.3-.3-18.2-34-1.7c-18.7-.9-36.4-1.7-39.3-1.7l-5.2-.1,.2,81.2Z"/><path d="M610,342.5v18.5h37v-37h-37v18.5Z"/><path d="M670.6,366.1c-12.2,.5-19.2,1.2-19.6,1.9-.6,1-2.1,279-1.6,279.7,.1,.2,9.3-.5,20.4-1.4l20.2-1.7v-139.8c0-76.9-.1-139.7-.2-139.6-.2,0-8.8,.5-19.2,.9Z"/><path d="M.2,424.7l.3,58.8H39.5l.5-40,.5-40,40.3-.3,40.2-.2v-37H0l.2,58.7Z"/><path d="M43.8,485.7c-1.6,.4-1.8,2.2-1.8,19.9v19.4h37v-19.4c0-16.8-.2-19.5-1.6-20-1.8-.7-31-.6-33.6,.1Z"/><path d="M81,566.5v39.5h40l-.2-39.3-.3-39.2-19.7-.3-19.8-.2v39.5Z"/><path d="M123,647.5v39.5h18.4c10.2,0,18.7,.4,19,.9,1.1,1.6,2.8,29.7,3.5,54.6l.6,25h37v-78l-18.4-.3c-11.5-.1-18.9-.7-19.8-1.3-1-.9-1.3-9.1-1.3-40.5v-39.4h-39v39.5Z"/><path d="M610.4,649.5c-.2,.5-.3,27.3-.2,59.5l.3,58.5h36l.3-58.8,.2-58.7-3.7-.1c-2.1-.1-10.3-.4-18.2-.8-9.2-.4-14.5-.2-14.7,.4Z"/><path d="M204.2,770.2c-.9,.9-1.2,15.2-1.2,61v59.8h405l-.2-60.8-.3-60.7-17.5-.3c-9.6-.1-18.5,0-19.7,.3l-2.3,.5v80l-162.2-.2-162.3-.3-.5-40-.5-40-18.5-.3c-13.6-.2-18.9,.1-19.8,1Z"/></g></g></g></svg>